<svg width="24" height="30" viewBox="0 0 24 30" fill="none" xmlns="http://www.w3.org/2000/svg">
<g clip-path="url(#clip0_508_1546)">
<path d="M20.0395 15.9384C20.0061 12.1448 23.0845 10.3236 23.2237 10.2348C21.4914 7.65606 18.7955 7.30278 17.8337 7.26122C15.5407 7.02507 13.3572 8.63467 12.1949 8.63467C11.0326 8.63467 9.23535 7.29523 7.33409 7.33301C4.83126 7.3708 2.52709 8.81226 1.23854 11.0906C-1.35898 15.6758 0.575705 22.4712 3.10453 26.193C4.34295 28.0123 5.81716 30.0621 7.75556 29.9865C9.6234 29.9109 10.3289 28.7585 12.583 28.7585C14.837 28.7585 15.472 29.9865 17.4457 29.9506C19.4528 29.9109 20.7265 28.0916 21.9556 26.2666C23.3741 24.1545 23.9608 22.1104 23.9943 22.0027C23.9497 21.9838 20.0803 20.4743 20.0395 15.9384Z" fill="black"/>
<path d="M16.3302 4.79917C17.3588 3.53151 18.0532 1.76886 17.862 0.0119629C16.3802 0.072483 14.5867 1.01704 13.5228 2.2847C12.5704 3.40505 11.7349 5.19975 11.9613 6.92087C13.6138 7.05123 15.3015 6.06497 16.3302 4.79917Z" fill="black"/>
</g>
<defs>
<clipPath id="clip0_508_1546">
<rect width="24" height="30" fill="white"/>
</clipPath>
</defs>
</svg>
